<svg width="26" height="28" viewBox="0 0 26 28" fill="none" xmlns="http://www.w3.org/2000/svg">
<g id="logo_book">
<path id="Vector" d="M20.5833 3.5H13C12.1979 3.50293 11.4255 3.82733 10.8333 4.41C10.2412 3.82733 9.46879 3.50293 8.66667 3.5H1.08333C0.796016 3.5 0.520465 3.62292 0.317301 3.84171C0.114137 4.0605 0 4.35725 0 4.66667V22.1667C0 22.4761 0.114137 22.7728 0.317301 22.9916C0.520465 23.2104 0.796016 23.3333 1.08333 23.3333H7.32117C7.89552 23.3347 8.4461 23.5805 8.853 24.017L10.0674 25.3248C10.0772 25.3353 10.0902 25.3388 10.0999 25.3493C10.1931 25.4427 10.2971 25.5243 10.4184 25.578H10.4206C10.6849 25.6958 10.9818 25.6958 11.2461 25.578H11.2483C11.3696 25.5243 11.4736 25.4415 11.5668 25.3493C11.5765 25.3388 11.5895 25.3353 11.5992 25.3248L12.8137 24.017C13.2206 23.5805 13.7711 23.3347 14.3455 23.3333H20.5833C20.8707 23.3333 21.1462 23.2104 21.3494 22.9916C21.5525 22.7728 21.6667 22.4761 21.6667 22.1667V4.66667C21.6667 4.35725 21.5525 4.0605 21.3494 3.84171C21.1462 3.62292 20.8707 3.5 20.5833 3.5ZM19.5 21H14.3455C13.4798 21.0027 12.6344 21.2825 11.9167 21.8038V7C11.9167 6.35717 12.402 5.83333 13 5.83333H19.5V21Z" fill="#F8FDFE"/>
</g>
</svg>
